#!OML:ASF I:\Actors\actors\Patient Classification 1\Patient 1\Session 1\Subject1.ASF
:FULLY-SPECIFIED
:DEGREES
758
root -0.300683 17.5417 7.83474 6.17426 -5.39888 -7.55538
lowerback 1.50586 1.22692 4.75253
upperback -8.76806 2.04553 0.865373
thorax -10.028 0.650893 -1.93487
lowerneck -11.2988 3.48938 6.21693
upperneck 34.4828 3.72312 -0.377047
head 13.7044 2.39663 -0.684691
rclavicle 4.17448e-015 -2.26615e-014
rhumerus 17.303 27.064 -47.059
rradius 112.637
rwrist -10.5968
rhand -19.818 -67.2128
rfingers 7.12502
rthumb 6.51555 -982.907
lclavicle 4.17448e-015 -2.26615e-014
lhumerus -57.9471 -13.2482 96.5644
lradius 117.933
lwrist 35.4373
lhand -39.0494 -12.0973
lfingers 7.12502
lthumb -12.0513 17.5357
rfemur 0.435901 23.5349 25.3661
rtibia 1.9649
rfoot -11.731 -19.2706
rtoes -4.07952
lfemur 14.6049 -44.789 -23.1282
ltibia -4.9529
lfoot -31.3331 56.4877
ltoes 19.2157
759
root -0.300123 17.5417 7.83181 6.18626 -5.43598 -7.53846
lowerback 1.49878 1.19728 4.7348
upperback -8.76548 2.00887 0.928606
thorax -10.026 0.637565 -1.85378
lowerneck -11.2897 3.55988 6.19371
upperneck 34.5149 3.86858 -0.471296
head 13.7237 2.44502 -0.696142
rclavicle -3.57812e-015 -2.5842e-014
rhumerus 17.7098 28.012 -46.9975
rradius 112.373
rwrist -8.21233
rhand -20.8143 -65.9565
rfingers 7.12502
rthumb 5.55368 -984.136
lclavicle -3.57812e-015 -2.5842e-014
lhumerus -57.8431 -13.0202 96.6384
lradius 117.952
lwrist 35.4337
lhand -39.0022 -12.0736
lfingers 7.12502
lthumb -12.0057 17.5621
rfemur 0.435998 23.6113 25.3369
rtibia 1.91943
rfoot -11.7296 -19.311
rtoes -4.00589
lfemur 14.5435 -44.728 -23.101
ltibia -4.94427
lfoot -31.521 56.4246
ltoes 19.6096
760
root -0.299714 17.5415 7.82761 6.2042 -5.46296 -7.51729
lowerback 1.5098 1.28478 4.78861
upperback -8.77846 2.12283 0.818563
thorax -10.0342 0.68311 -2.01256
lowerneck -11.2975 3.51213 6.37783
upperneck 34.5076 3.75602 -0.490409
head 13.7245 2.41774 -0.752483
rclavicle -1.66979e-014 -1.78906e-014
rhumerus 17.6654 28.9447 -47.0854
rradius 112.223
rwrist -4.16324
rhand -21.6031 -65.4282
rfingers 7.12502
rthumb 4.79199 -984.646
lclavicle -1.66979e-014 -1.78906e-014
lhumerus -57.7476 -13.296 96.6867
lradius 117.943
lwrist 35.4818
lhand -38.9797 -12.0276
lfingers 7.12502
lthumb -11.9841 17.6094
rfemur 0.401182 23.647 25.2959
rtibia 1.91229
rfoot -11.7097 -19.3326
rtoes -4.12424
lfemur 14.466 -44.6946 -23.0831
ltibia -4.91105
lfoot -31.6267 56.3941
ltoes 19.6749
761
root -0.299651 17.5411 7.82265 6.22456 -5.45683 -7.50509
lowerback 1.50513 1.41023 4.90671
upperback -8.77645 2.28398 0.624774
thorax -10.007 0.743596 -2.30033
lowerneck -11.1362 3.44306 6.83577
upperneck 34.2785 3.59553 -0.632644
head 13.5988 2.38674 -0.916295
rclavicle 6.4605e-015 -1.90833e-014
rhumerus 17.4121 29.663 -47.2771
rradius 111.896
rwrist 0.518871
rhand -22.1551 -64.4024
rfingers 7.12502
rthumb 4.25901 -985.66
lclavicle 6.4605e-015 -1.90833e-014
lhumerus -57.6099 -13.8119 96.6886
lradius 117.918
lwrist 35.5426
lhand -39.031 -11.9472
lfingers 7.12502
lthumb -12.0335 17.6868
rfemur 0.344731 23.6421 25.2603
rtibia 1.93727
rfoot -11.73 -19.3318
rtoes -4.1308
lfemur 14.359 -44.6346 -23.0088
ltibia -4.90004
lfoot -31.6091 56.3457
ltoes 19.5933
762
root -0.299462 17.5406 7.8192 6.23129 -5.44734 -7.50699
lowerback 1.46949 1.45447 5.01923
upperback -8.745 2.33958 0.524664
thorax -9.939 0.759205 -2.4734
lowerneck -11.289 3.39469 6.78458
upperneck 34.3397 3.47259 -0.482765
head 13.6499 2.34628 -0.863485
rclavicle -1.87852e-014 3.10104e-014
rhumerus 17.4485 30.6332 -47.2625
rradius 111.366
rwrist 5.47729
rhand -22.8369 -62.6339
rfingers 7.12502
rthumb 3.60061 -987.417
lclavicle -1.87852e-014 3.10104e-014
lhumerus -57.462 -14.0795 96.6889
lradius 117.943
lwrist 35.5478
lhand -39.085 -11.5503
lfingers 7.12502
lthumb -12.0856 18.0807
rfemur 0.309418 23.6469 25.2506
rtibia 1.96712
rfoot -11.7844 -19.3371
rtoes -4.08752
lfemur 14.3443 -44.6861 -22.9973
ltibia -4.90244
lfoot -31.7402 56.3484
ltoes 19.8347
763
root -0.299139 17.5406 7.81659 6.22722 -5.44981 -7.54338
lowerback 1.44489 1.46123 5.13593
upperback -8.70451 2.35101 0.496051
thorax -9.87381 0.756523 -2.56848
lowerneck -11.1612 3.42319 6.93928
upperneck 34.1776 3.53376 -0.623751
head 13.5604 2.37258 -0.939847
rclavicle -1.93815e-014 -1.19271e-014
rhumerus 17.6753 31.8479 -47.1372
rradius 110.758
rwrist 10.2087
rhand -24.0499 -60.0509
rfingers 7.12502
rthumb 2.42918 -989.983
lclavicle -1.93815e-014 -1.19271e-014
lhumerus -57.3153 -14.2181 96.7297
lradius 117.994
lwrist 35.4881
lhand -39.1452 -10.9657
lfingers 7.12502
lthumb -12.1436 18.6618
rfemur 0.286688 23.6203 25.2851
rtibia 1.99941
rfoot -11.794 -19.3002
rtoes -4.11012
lfemur 14.3537 -44.7282 -22.9718
ltibia -4.88961
lfoot -31.7096 56.3808
ltoes 19.8492
764
root -0.299781 17.5412 7.81349 6.21641 -5.47082 -7.6046
lowerback 1.47052 1.50399 5.25875
upperback -8.68229 2.41439 0.45343
thorax -9.85419 0.776517 -2.68871
lowerneck -11.1452 3.42028 7.07151
upperneck 34.1284 3.52811 -0.713618
head 13.5409 2.37485 -0.999616
rclavicle -1.43125e-014 -6.36111e-015
rhumerus 17.8001 33.1617 -47.0577
rradius 110.168
rwrist 14.8395
rhand -25.5889 -56.7939
rfingers 7.12502
rthumb 0.942761 -1166.77
lclavicle -1.43125e-014 -6.36111e-015
lhumerus -57.1983 -14.4508 96.8127
lradius 118.038
lwrist 35.4044
lhand -39.28 -10.3338
lfingers 7.12502
lthumb -12.2737 19.286
rfemur 0.264085 23.6173 25.3572
rtibia 2.04882
rfoot -11.775 -19.2632
rtoes -4.13455
lfemur 14.3609 -44.7157 -22.8989
ltibia -4.89372
lfoot -31.6529 56.3887
ltoes 19.829
765
root -0.301083 17.5418 7.81131 6.19632 -5.53945 -7.61495
lowerback 1.50279 1.55726 5.30373
upperback -8.67187 2.48729 0.407261
thorax -9.85241 0.806527 -2.77071
lowerneck -11.1498 3.41883 7.13244
upperneck 34.1367 3.50998 -0.711469
head 13.5469 2.37541 -1.01181
rclavicle 2.00773e-014 9.54166e-015
rhumerus 17.9711 34.7563 -46.8858
rradius 109.717
rwrist 19.1906
rhand -27.2087 -53.3427
rfingers 7.12502
rthumb -0.62166 -1163.32
lclavicle 2.00773e-014 9.54166e-015
lhumerus -57.0987 -14.6748 96.9308
lradius 118.09
lwrist 35.3032
lhand -39.4485 -9.64394
lfingers 7.12502
lthumb -12.4361 19.9661
rfemur 0.251304 23.6493 25.3751
rtibia 2.09587
rfoot -11.7594 -19.2243
rtoes -4.16662
lfemur 14.4522 -44.7679 -22.9611
ltibia -4.92004
lfoot -31.8032 56.4802
ltoes 19.9818
766
root -0.301578 17.5416 7.81009 6.18571 -5.64766 -7.58045
lowerback 1.48583 1.62035 5.31363
upperback -8.65752 2.56723 0.358624
thorax -9.81658 0.843876 -2.83455
lowerneck -11.1038 3.42271 7.17592
upperneck 34.132 3.51293 -0.721336
head 13.5366 2.38142 -1.02348
rclavicle 4.47266e-015 2.46493e-014
rhumerus 18.2382 36.7089 -46.5674
rradius 109.33
rwrist 23.306
rhand -28.8373 -50.1615
rfingers 7.12502
rthumb -2.19458 -1160.13
lclavicle 4.47266e-015 2.46493e-014
lhumerus -56.9356 -14.9277 97.0955
lradius 118.12
lwrist 35.1617
lhand -39.7851 -9.15221
lfingers 7.12502
lthumb -12.7606 20.4378
rfemur 0.225648 23.6528 25.3251
rtibia 2.13382
rfoot -11.7652 -19.1289
rtoes -4.11643
lfemur 14.5778 -44.8723 -23.1274
ltibia -4.93896
lfoot -32.1101 56.6593
ltoes 20.1416
767
root -0.301375 17.541 7.80807 6.18116 -5.7705 -7.56529
lowerback 1.44538 1.6832 5.35791
upperback -8.64586 2.65005 0.339904
thorax -9.76979 0.881671 -2.88489
lowerneck -10.9294 3.43955 7.22016
upperneck 34.0558 3.57262 -0.807642
head 13.4706 2.40197 -1.05941
rclavicle 4.07509e-015 2.38542e-015
rhumerus 18.5718 38.9088 -46.1235
rradius 108.907
rwrist 27.4143
rhand -30.1983 -46.9787
rfingers 7.12502
rthumb -3.50896 -1156.93
lclavicle 4.07509e-015 2.38542e-015
lhumerus -56.7365 -15.1592 97.3201
lradius 118.147
lwrist 34.981
lhand -40.2722 -8.7266
lfingers 7.12502
lthumb -13.2302 20.8335
rfemur 0.180016 23.6149 25.2801
rtibia 2.18332
rfoot -11.7936 -18.9735
rtoes -3.91176
lfemur 14.5927 -44.7849 -23.1534
ltibia -4.95564
lfoot -32.1072 56.7092
ltoes 20.0624
768
root -0.301613 17.5401 7.8055 6.16645 -5.89392 -7.56767
lowerback 1.41413 1.73122 5.40209
upperback -8.63911 2.71639 0.355438
thorax -9.73705 0.912522 -2.89748
lowerneck -10.6872 3.48698 7.26
upperneck 33.9397 3.68747 -0.901994
head 13.3754 2.44507 -1.09069
rclavicle 7.35503e-015 1.03368e-014
rhumerus 19.0792 41.3198 -45.5045
rradius 108.513
rwrist 31.3391
rhand -31.0517 -43.4425
rfingers 7.12502
rthumb -4.3331 -1153.38
lclavicle 7.35503e-015 1.03368e-014
lhumerus -56.5323 -15.3047 97.5629
lradius 118.191
lwrist 34.7353
lhand -40.6424 -8.19331
lfingers 7.12502
lthumb -13.587 21.3433
rfemur 0.158511 23.5434 25.2587
rtibia 2.19017
rfoot -11.7504 -18.8409
rtoes -4.1471
lfemur 14.5411 -44.5643 -23.0858
ltibia -4.95482
lfoot -31.7574 56.6646
ltoes 19.7924
